<svg xmlns="http://www.w3.org/2000/svg" width="18" height="18" viewBox="0 0 18 18">
    <g fill="none" fill-rule="evenodd">
        <g stroke="#78AF45" stroke-linecap="square" stroke-width="3">
            <path d="M-12.375 54.678L10.39 8M10.39 13.678L-12.374-33"/>
        </g>
        <path fill="#78AF45" d="M-11-11h40v40h-40z"/>
        <path fill="#FFF" d="M9 3.111A7.089 7.089 0 0 0 .424 2.79 1.039 1.039 0 0 0 0 3.643v11.23c0 .772.8 1.274 1.5.947a7.096 7.096 0 0 1 6.896.501c.362.239.846.239 1.208 0a7.096 7.096 0 0 1 6.896-.5c.7.326 1.5-.176 1.5-.948V3.643c0-.335-.15-.662-.424-.854A7.09 7.09 0 0 0 9 3.111"/>
    </g>
</svg>
