<svg xmlns="http://www.w3.org/2000/svg" width="22" height="22" viewBox="0 0 22 22">
    <g fill="none" fill-rule="evenodd" transform="translate(-1849 -9)">
        <path fill="#EEE" stroke="#BBB" d="M1840 0h40v40h-40z"/>
        <path fill="#777" d="M1869.24 25.826c-.96-1.656-1.696-3.433-1.726-5.354-.019-1.16-.033-2.209-.033-2.632 0-3.009-2.297-5.541-5.432-6.326v-.44c-.001-1.146-.919-2.074-2.048-2.074-1.133-.001-2.05.928-2.048 2.075v.439c-3.135.783-5.43 3.317-5.43 6.326 0 .422-.016 1.471-.035 2.632-.03 1.92-.767 3.7-1.726 5.355-.166.288-.262.62-.262.977 0 1.07.858 1.94 1.914 1.937h4.327c.512 1.32 1.776 2.259 3.259 2.259 1.486 0 2.748-.94 3.261-2.26h4.327c1.058.004 1.913-.865 1.912-1.936 0-.357-.094-.69-.26-.978"/>
        <rect width="16" height="16" x="1860" y="4" fill="#1681C1" fill-rule="nonzero" rx="8"/>
        <text fill="#FFF" font-family="OpenSans-Bold, Open Sans" font-size="10" font-weight="bold">
            <tspan x="1865.146" y="15">1</tspan>
        </text>
    </g>
</svg>
