<svg xmlns="http://www.w3.org/2000/svg" width="18" height="18" viewBox="0 0 18 18">
    <defs>
        <linearGradient id="a" x1="50%" x2="50%" y1="0%" y2="88.716%">
            <stop offset="0%" stop-color="#FFF" stop-opacity="0"/>
            <stop offset="100%" stop-color="#FFF"/>
        </linearGradient>
    </defs>
    <g fill="none" fill-rule="evenodd">
        <path stroke="#EEE" stroke-linecap="square" stroke-width="3" d="M-2.375 5.678L20.39-41"/>
        <path fill="#EEE" d="M-21-17h40v40h-40z"/>
        <path fill="#BBB" d="M2.412-.813L7.652.652a.474.474 0 0 1 .245.752L4.52 5.668l.224 5.43a.475.475 0 0 1-.64.465L-1.001 9.67l-5.103 1.892a.475.475 0 0 1-.64-.465l.224-5.43-3.377-4.264a.474.474 0 0 1 .244-.752l5.241-1.465 3.016-4.526a.476.476 0 0 1 .792 0L2.412-.813z"/>
        <path fill="url(#a)" d="M944 548h60v80h-60z" transform="translate(-965 -590)"/>
        <path fill="#BBB" d="M9 10c-.47 0-.923-.188-1.255-.52L1.521 3.252A1.775 1.775 0 0 1 4.029.742L9 5.713 13.97.741a1.775 1.775 0 0 1 2.509 2.51L10.255 9.48C9.923 9.812 9.47 10 9 10zm0 8c-.47 0-.923-.188-1.255-.52l-6.224-6.228a1.775 1.775 0 0 1 2.508-2.51L9 13.713l4.97-4.973a1.775 1.775 0 0 1 2.509 2.51l-6.224 6.229C9.923 17.812 9.47 18 9 18z"/>
    </g>
</svg>
