<svg xmlns="http://www.w3.org/2000/svg" width="24" height="24" viewBox="0 0 24 24">
    <g fill="none" fill-rule="evenodd">
        <path fill="#FFF" stroke="#BBB" d="M-48-7h1400v40H-48z"/>
        <path fill="#EEE" stroke="#BBB" d="M-8-7h40v40H-8z"/>
        <g fill-rule="nonzero" transform="translate(0 1.5)">
            <path fill="#1681C1" d="M19.7.728l-.956-.656L9.34 19.2l3.544 2.4 9.44-19.116L19.7.728zm-7.648 18.548a.592.592 0 1 1-.008-1.184.592.592 0 0 1 .008 1.184zM19.28 4.132a.644.644 0 1 1-.008-1.288.644.644 0 0 1 .008 1.288zM3.072.072l-3 21.128H4.4L7.36.072H3.072zm1.564 4a.588.588 0 1 1 .588-.588.588.588 0 0 1-.588.596v-.008z"/>
            <g fill="#000" opacity=".15" style="mix-blend-mode:multiply">
                <path d="M9.62 18.648l-.28.568.844.572zM13.792 19.788l-1.804 1.228.48.328.836-.572zM12.028 13.728l-.04.096 2.368 4.824.052-.112z"/>
            </g>
            <path fill="#000" d="M18.16 10.944l-1.052-7.54-.424.864 1.052 7.536z" opacity=".15" style="mix-blend-mode:multiply"/>
            <path fill="#1681C1" d="M20.928.072H16.64L19.6 21.2h4.328l-3-21.128zm-1.648 4.06a.644.644 0 1 1-.008-1.288.644.644 0 0 1 .008 1.288z"/>
            <path fill="#000" d="M5.836 10.984l-3.352-6.78-.132.948 3.348 6.78z" opacity=".15" style="mix-blend-mode:multiply"/>
            <path fill="#1681C1" d="M5.232.072l-.96.656-2.624 1.784 9.444 19.116 3.544-2.4L5.232.072zm-.596 4a.588.588 0 1 1 .588-.588.588.588 0 0 1-.588.596v-.008zm7.416 15.2a.592.592 0 1 1 .588-.588.588.588 0 0 1-.588.592v-.004z"/>
            <circle cx="4.636" cy="3.492" r="1" fill="#FFF"/>
            <circle cx="12.052" cy="18.688" r="1" fill="#FFF"/>
            <path fill="#FFF" d="M19.28 4.132a.644.644 0 1 1-.008-1.288.644.644 0 0 1 .008 1.288z"/>
        </g>
    </g>
</svg>
